<mxfile host="Electron" agent="Mozilla/5.0 (Windows NT 10.0; Win64; x64) AppleWebKit/537.36 (KHTML, like Gecko) draw.io/24.7.17 Chrome/128.0.6613.36 Electron/32.0.1 Safari/537.36" version="24.7.17">
  <diagram id="fl3l7JhTa4kS9sDUFRaA" name="第 1 页">
    <mxGraphModel dx="3263" dy="2837" grid="1" gridSize="10" guides="1" tooltips="1" connect="1" arrows="1" fold="1" page="1" pageScale="1" pageWidth="827" pageHeight="1169" math="0" shadow="0">
      <root>
        <mxCell id="0" />
        <mxCell id="1" parent="0" />
        <mxCell id="mCzkdZ3VEg0cLPXtIAzx-1" value="" style="rounded=0;whiteSpace=wrap;html=1;strokeColor=#80FF00;" vertex="1" parent="1">
          <mxGeometry x="-1427" y="-1150" width="204" height="93" as="geometry" />
        </mxCell>
        <mxCell id="Nc4wAFm8coX0yKCtMDV_-5" value="req_count{status=&quot;200&quot;}" style="text;html=1;strokeColor=none;fillColor=none;align=center;verticalAlign=middle;whiteSpace=wrap;rounded=0;fontSize=15;fontFamily=Aa老外雨果体;fontStyle=1" parent="1" vertex="1">
          <mxGeometry x="-1590" y="-1144" width="60" height="30" as="geometry" />
        </mxCell>
        <mxCell id="Nc4wAFm8coX0yKCtMDV_-6" value="req_count{status=&quot;511&quot;}" style="text;html=1;strokeColor=none;fillColor=none;align=center;verticalAlign=middle;whiteSpace=wrap;rounded=0;fontSize=15;fontFamily=Aa老外雨果体;fontStyle=1" parent="1" vertex="1">
          <mxGeometry x="-1590" y="-1090" width="60" height="30" as="geometry" />
        </mxCell>
        <mxCell id="Nc4wAFm8coX0yKCtMDV_-7" value="req_duration{path=&quot;/c&quot;}" style="text;html=1;strokeColor=none;fillColor=none;align=center;verticalAlign=middle;whiteSpace=wrap;rounded=0;fontSize=15;fontFamily=Aa老外雨果体;fontStyle=1" parent="1" vertex="1">
          <mxGeometry x="-1590" y="-1021" width="60" height="30" as="geometry" />
        </mxCell>
        <mxCell id="Nc4wAFm8coX0yKCtMDV_-9" value="req_duration{path=&quot;/a&quot;}" style="text;whiteSpace=wrap;html=1;fontSize=15;fontFamily=Aa老外雨果体;fontStyle=1" parent="1" vertex="1">
          <mxGeometry x="-1655" y="-975" width="310" height="30" as="geometry" />
        </mxCell>
        <mxCell id="Nc4wAFm8coX0yKCtMDV_-10" value="......" style="text;html=1;strokeColor=none;fillColor=none;align=center;verticalAlign=middle;whiteSpace=wrap;rounded=0;fontFamily=Aa老外雨果体;fontSize=15;fontStyle=1" parent="1" vertex="1">
          <mxGeometry x="-1570" y="-1060" width="60" height="30" as="geometry" />
        </mxCell>
        <mxCell id="Nc4wAFm8coX0yKCtMDV_-11" value="" style="endArrow=none;dashed=1;html=1;dashPattern=1 3;strokeWidth=2;rounded=0;fontFamily=Aa老外雨果体;fontSize=15;startArrow=none;fontStyle=1" parent="1" source="Nc4wAFm8coX0yKCtMDV_-15" edge="1">
          <mxGeometry width="50" height="50" relative="1" as="geometry">
            <mxPoint x="-1443" y="-1125.5" as="sourcePoint" />
            <mxPoint x="-1158" y="-1125" as="targetPoint" />
          </mxGeometry>
        </mxCell>
        <mxCell id="Nc4wAFm8coX0yKCtMDV_-12" value="" style="endArrow=none;dashed=1;html=1;dashPattern=1 3;strokeWidth=2;rounded=0;fontFamily=Aa老外雨果体;fontSize=15;fontStyle=1" parent="1" edge="1">
          <mxGeometry width="50" height="50" relative="1" as="geometry">
            <mxPoint x="-1438" y="-1075.5" as="sourcePoint" />
            <mxPoint x="-1148" y="-1075.5" as="targetPoint" />
          </mxGeometry>
        </mxCell>
        <mxCell id="Nc4wAFm8coX0yKCtMDV_-13" value="" style="endArrow=none;dashed=1;html=1;dashPattern=1 3;strokeWidth=2;rounded=0;fontFamily=Aa老外雨果体;fontSize=15;fontStyle=1" parent="1" edge="1">
          <mxGeometry width="50" height="50" relative="1" as="geometry">
            <mxPoint x="-1438" y="-1010.5" as="sourcePoint" />
            <mxPoint x="-1138" y="-1010.5" as="targetPoint" />
          </mxGeometry>
        </mxCell>
        <mxCell id="Nc4wAFm8coX0yKCtMDV_-14" value="" style="endArrow=none;dashed=1;html=1;dashPattern=1 3;strokeWidth=2;rounded=0;fontFamily=Aa老外雨果体;fontSize=15;fontStyle=1" parent="1" edge="1">
          <mxGeometry width="50" height="50" relative="1" as="geometry">
            <mxPoint x="-1438" y="-963" as="sourcePoint" />
            <mxPoint x="-1148" y="-963" as="targetPoint" />
          </mxGeometry>
        </mxCell>
        <mxCell id="Nc4wAFm8coX0yKCtMDV_-15" value="" style="ellipse;whiteSpace=wrap;html=1;strokeWidth=2;fillWeight=2;hachureGap=8;fillColor=#1ba1e2;sketch=1;fontFamily=Aa老外雨果体;fontSize=15;fontStyle=1" parent="1" vertex="1">
          <mxGeometry x="-1418" y="-1135" width="20" height="20" as="geometry" />
        </mxCell>
        <mxCell id="Nc4wAFm8coX0yKCtMDV_-19" value="" style="endArrow=none;dashed=1;html=1;dashPattern=1 3;strokeWidth=2;rounded=0;fontFamily=Aa老外雨果体;fontSize=15;fontStyle=1" parent="1" target="Nc4wAFm8coX0yKCtMDV_-15" edge="1">
          <mxGeometry width="50" height="50" relative="1" as="geometry">
            <mxPoint x="-1443" y="-1125.5" as="sourcePoint" />
            <mxPoint x="-1158" y="-1125" as="targetPoint" />
          </mxGeometry>
        </mxCell>
        <mxCell id="Nc4wAFm8coX0yKCtMDV_-20" value="" style="ellipse;whiteSpace=wrap;html=1;strokeWidth=2;fillWeight=2;hachureGap=8;fillColor=#1ba1e2;sketch=1;fontFamily=Aa老外雨果体;fontSize=15;fontStyle=1" parent="1" vertex="1">
          <mxGeometry x="-1414" y="-1090" width="20" height="20" as="geometry" />
        </mxCell>
        <mxCell id="Nc4wAFm8coX0yKCtMDV_-21" value="" style="ellipse;whiteSpace=wrap;html=1;strokeWidth=2;fillWeight=2;hachureGap=8;fillColor=#1ba1e2;sketch=1;fontFamily=Aa老外雨果体;fontSize=15;fontStyle=1" parent="1" vertex="1">
          <mxGeometry x="-1415" y="-1025" width="20" height="20" as="geometry" />
        </mxCell>
        <mxCell id="Nc4wAFm8coX0yKCtMDV_-22" value="" style="ellipse;whiteSpace=wrap;html=1;strokeWidth=2;fillWeight=2;hachureGap=8;fillColor=#1ba1e2;sketch=1;fontFamily=Aa老外雨果体;fontSize=15;fontStyle=1" parent="1" vertex="1">
          <mxGeometry x="-1416" y="-975" width="20" height="20" as="geometry" />
        </mxCell>
        <mxCell id="Nc4wAFm8coX0yKCtMDV_-23" value="" style="ellipse;whiteSpace=wrap;html=1;strokeWidth=2;fillWeight=2;hachureGap=8;fillColor=#1ba1e2;sketch=1;fontFamily=Aa老外雨果体;fontSize=15;fontStyle=1" parent="1" vertex="1">
          <mxGeometry x="-1364" y="-1136" width="20" height="20" as="geometry" />
        </mxCell>
        <mxCell id="Nc4wAFm8coX0yKCtMDV_-24" value="" style="ellipse;whiteSpace=wrap;html=1;strokeWidth=2;fillWeight=2;hachureGap=8;fillColor=#1ba1e2;sketch=1;fontFamily=Aa老外雨果体;fontSize=15;fontStyle=1" parent="1" vertex="1">
          <mxGeometry x="-1362" y="-1085" width="20" height="20" as="geometry" />
        </mxCell>
        <mxCell id="Nc4wAFm8coX0yKCtMDV_-25" value="" style="ellipse;whiteSpace=wrap;html=1;strokeWidth=2;fillWeight=2;hachureGap=8;fillColor=#1ba1e2;sketch=1;fontFamily=Aa老外雨果体;fontSize=15;fontStyle=1" parent="1" vertex="1">
          <mxGeometry x="-1363" y="-1019" width="20" height="20" as="geometry" />
        </mxCell>
        <mxCell id="Nc4wAFm8coX0yKCtMDV_-26" value="" style="ellipse;whiteSpace=wrap;html=1;strokeWidth=2;fillWeight=2;hachureGap=8;fillColor=#1ba1e2;sketch=1;fontFamily=Aa老外雨果体;fontSize=15;fontStyle=1" parent="1" vertex="1">
          <mxGeometry x="-1362" y="-974" width="20" height="20" as="geometry" />
        </mxCell>
        <mxCell id="Nc4wAFm8coX0yKCtMDV_-27" value="" style="ellipse;whiteSpace=wrap;html=1;strokeWidth=2;fillWeight=2;hachureGap=8;fillColor=#1ba1e2;sketch=1;fontFamily=Aa老外雨果体;fontSize=15;fontStyle=1;strokeColor=#FFB570;" parent="1" vertex="1">
          <mxGeometry x="-1310" y="-1135" width="20" height="20" as="geometry" />
        </mxCell>
        <mxCell id="Nc4wAFm8coX0yKCtMDV_-28" value="" style="ellipse;whiteSpace=wrap;html=1;strokeWidth=2;fillWeight=2;hachureGap=8;fillColor=#1ba1e2;sketch=1;fontFamily=Aa老外雨果体;fontSize=15;fontStyle=1" parent="1" vertex="1">
          <mxGeometry x="-1311" y="-1083" width="20" height="20" as="geometry" />
        </mxCell>
        <mxCell id="Nc4wAFm8coX0yKCtMDV_-29" value="" style="ellipse;whiteSpace=wrap;html=1;strokeWidth=2;fillWeight=2;hachureGap=8;fillColor=#1ba1e2;sketch=1;fontFamily=Aa老外雨果体;fontSize=15;fontStyle=1" parent="1" vertex="1">
          <mxGeometry x="-1313" y="-1022" width="20" height="20" as="geometry" />
        </mxCell>
        <mxCell id="Nc4wAFm8coX0yKCtMDV_-30" value="" style="ellipse;whiteSpace=wrap;html=1;strokeWidth=2;fillWeight=2;hachureGap=8;fillColor=#1ba1e2;sketch=1;fontFamily=Aa老外雨果体;fontSize=15;fontStyle=1" parent="1" vertex="1">
          <mxGeometry x="-1313" y="-975" width="20" height="20" as="geometry" />
        </mxCell>
        <mxCell id="Nc4wAFm8coX0yKCtMDV_-31" value="" style="ellipse;whiteSpace=wrap;html=1;strokeWidth=2;fillWeight=2;hachureGap=8;fillColor=#1ba1e2;sketch=1;fontFamily=Aa老外雨果体;fontSize=15;fontStyle=1" parent="1" vertex="1">
          <mxGeometry x="-1257" y="-1134" width="20" height="20" as="geometry" />
        </mxCell>
        <mxCell id="Nc4wAFm8coX0yKCtMDV_-32" value="" style="ellipse;whiteSpace=wrap;html=1;strokeWidth=2;fillWeight=2;hachureGap=8;fillColor=#1ba1e2;sketch=1;fontFamily=Aa老外雨果体;fontSize=15;fontStyle=1" parent="1" vertex="1">
          <mxGeometry x="-1254" y="-1082" width="20" height="20" as="geometry" />
        </mxCell>
        <mxCell id="Nc4wAFm8coX0yKCtMDV_-33" value="" style="ellipse;whiteSpace=wrap;html=1;strokeWidth=2;fillWeight=2;hachureGap=8;fillColor=#1ba1e2;sketch=1;fontFamily=Aa老外雨果体;fontSize=15;fontStyle=1" parent="1" vertex="1">
          <mxGeometry x="-1258" y="-1016" width="20" height="20" as="geometry" />
        </mxCell>
        <mxCell id="Nc4wAFm8coX0yKCtMDV_-34" value="" style="ellipse;whiteSpace=wrap;html=1;strokeWidth=2;fillWeight=2;hachureGap=8;fillColor=#1ba1e2;sketch=1;fontFamily=Aa老外雨果体;fontSize=15;fontStyle=1" parent="1" vertex="1">
          <mxGeometry x="-1257" y="-975" width="20" height="20" as="geometry" />
        </mxCell>
        <mxCell id="Nc4wAFm8coX0yKCtMDV_-36" value="" style="curved=1;endArrow=classic;html=1;rounded=0;fontFamily=Aa老外雨果体;fontSize=15;entryX=0.2;entryY=1.35;entryDx=0;entryDy=0;entryPerimeter=0;" parent="1" edge="1">
          <mxGeometry width="50" height="50" relative="1" as="geometry">
            <mxPoint x="-1408" y="-917" as="sourcePoint" />
            <mxPoint x="-1358" y="-919" as="targetPoint" />
            <Array as="points">
              <mxPoint x="-1368" y="-842" />
            </Array>
          </mxGeometry>
        </mxCell>
        <mxCell id="Nc4wAFm8coX0yKCtMDV_-37" value="" style="curved=1;endArrow=classic;html=1;rounded=0;fontFamily=Aa老外雨果体;fontSize=15;exitX=0.9;exitY=1.25;exitDx=0;exitDy=0;exitPerimeter=0;fontStyle=1" parent="1" edge="1">
          <mxGeometry width="50" height="50" relative="1" as="geometry">
            <mxPoint x="-1358" y="-920" as="sourcePoint" />
            <mxPoint x="-1302" y="-916" as="targetPoint" />
            <Array as="points">
              <mxPoint x="-1332" y="-841" />
            </Array>
          </mxGeometry>
        </mxCell>
        <mxCell id="Nc4wAFm8coX0yKCtMDV_-38" value="" style="curved=1;endArrow=classic;html=1;rounded=0;fontFamily=Aa老外雨果体;fontSize=15;exitX=0.9;exitY=1.25;exitDx=0;exitDy=0;exitPerimeter=0;fontStyle=1" parent="1" edge="1">
          <mxGeometry width="50" height="50" relative="1" as="geometry">
            <mxPoint x="-1298" y="-919" as="sourcePoint" />
            <mxPoint x="-1251" y="-915" as="targetPoint" />
            <Array as="points">
              <mxPoint x="-1281" y="-840" />
            </Array>
          </mxGeometry>
        </mxCell>
        <mxCell id="Nc4wAFm8coX0yKCtMDV_-39" value="搜刮的固定时间间隔" style="text;html=1;strokeColor=none;fillColor=none;align=center;verticalAlign=middle;whiteSpace=wrap;rounded=0;fontFamily=Aa老外雨果体;fontSize=15;fontStyle=1" parent="1" vertex="1">
          <mxGeometry x="-1442" y="-865" width="157" height="30" as="geometry" />
        </mxCell>
        <mxCell id="Nc4wAFm8coX0yKCtMDV_-41" value="......" style="text;html=1;strokeColor=none;fillColor=none;align=center;verticalAlign=middle;whiteSpace=wrap;rounded=0;fontFamily=Aa老外雨果体;fontSize=15;fontStyle=1" parent="1" vertex="1">
          <mxGeometry x="-1356" y="-1060" width="60" height="30" as="geometry" />
        </mxCell>
        <mxCell id="Nc4wAFm8coX0yKCtMDV_-42" value="......" style="text;html=1;strokeColor=none;fillColor=none;align=center;verticalAlign=middle;whiteSpace=wrap;rounded=0;fontFamily=Aa老外雨果体;fontSize=15;fontStyle=1" parent="1" vertex="1">
          <mxGeometry x="-1128" y="-1056" width="60" height="30" as="geometry" />
        </mxCell>
        <mxCell id="Nc4wAFm8coX0yKCtMDV_-43" value="序列1" style="text;html=1;strokeColor=none;fillColor=none;align=center;verticalAlign=middle;whiteSpace=wrap;rounded=0;fontFamily=Aa老外雨果体;fontSize=15;fontStyle=1" parent="1" vertex="1">
          <mxGeometry x="-1121" y="-1138" width="60" height="30" as="geometry" />
        </mxCell>
        <mxCell id="Nc4wAFm8coX0yKCtMDV_-44" value="序列2" style="text;html=1;strokeColor=none;fillColor=none;align=center;verticalAlign=middle;whiteSpace=wrap;rounded=0;fontFamily=Aa老外雨果体;fontSize=15;fontStyle=1" parent="1" vertex="1">
          <mxGeometry x="-1121" y="-1091" width="60" height="30" as="geometry" />
        </mxCell>
        <mxCell id="Nc4wAFm8coX0yKCtMDV_-45" value="序列n-1" style="text;html=1;strokeColor=none;fillColor=none;align=center;verticalAlign=middle;whiteSpace=wrap;rounded=0;fontFamily=Aa老外雨果体;fontSize=15;fontStyle=1" parent="1" vertex="1">
          <mxGeometry x="-1124" y="-1025" width="74" height="30" as="geometry" />
        </mxCell>
        <mxCell id="Nc4wAFm8coX0yKCtMDV_-46" value="序列n" style="text;html=1;strokeColor=none;fillColor=none;align=center;verticalAlign=middle;whiteSpace=wrap;rounded=0;fontFamily=Aa老外雨果体;fontSize=15;fontStyle=1" parent="1" vertex="1">
          <mxGeometry x="-1128" y="-980" width="74" height="30" as="geometry" />
        </mxCell>
        <mxCell id="Nc4wAFm8coX0yKCtMDV_-47" value="" style="endArrow=classic;html=1;rounded=0;fontFamily=Aa老外雨果体;fontSize=15;fontStyle=1;strokeWidth=2;" parent="1" edge="1">
          <mxGeometry width="50" height="50" relative="1" as="geometry">
            <mxPoint x="-1433" y="-920" as="sourcePoint" />
            <mxPoint x="-1028" y="-920" as="targetPoint" />
          </mxGeometry>
        </mxCell>
        <mxCell id="Nc4wAFm8coX0yKCtMDV_-49" value="" style="curved=1;endArrow=none;html=1;rounded=0;fontFamily=Aa老外雨果体;fontSize=15;exitX=0.9;exitY=1.25;exitDx=0;exitDy=0;exitPerimeter=0;fontStyle=1;endFill=0;" parent="1" edge="1">
          <mxGeometry width="50" height="50" relative="1" as="geometry">
            <mxPoint x="-1245" y="-921" as="sourcePoint" />
            <mxPoint x="-1205" y="-897" as="targetPoint" />
            <Array as="points">
              <mxPoint x="-1228" y="-842" />
            </Array>
          </mxGeometry>
        </mxCell>
        <mxCell id="Nc4wAFm8coX0yKCtMDV_-50" value="" style="curved=1;endArrow=none;html=1;rounded=0;fontFamily=Aa老外雨果体;fontSize=15;fontStyle=1;endFill=0;" parent="1" edge="1">
          <mxGeometry width="50" height="50" relative="1" as="geometry">
            <mxPoint x="-1445" y="-920" as="sourcePoint" />
            <mxPoint x="-1415" y="-911" as="targetPoint" />
            <Array as="points">
              <mxPoint x="-1438" y="-856" />
            </Array>
          </mxGeometry>
        </mxCell>
        <mxCell id="mCzkdZ3VEg0cLPXtIAzx-3" value="" style="endArrow=classic;html=1;rounded=0;entryX=0.5;entryY=1;entryDx=0;entryDy=0;" edge="1" parent="1" target="mCzkdZ3VEg0cLPXtIAzx-4">
          <mxGeometry width="50" height="50" relative="1" as="geometry">
            <mxPoint x="-1427" y="-1152" as="sourcePoint" />
            <mxPoint x="-1427" y="-1230" as="targetPoint" />
          </mxGeometry>
        </mxCell>
        <mxCell id="mCzkdZ3VEg0cLPXtIAzx-4" value="Range Vector&lt;div&gt;(范围向量)&lt;/div&gt;" style="text;html=1;align=center;verticalAlign=middle;whiteSpace=wrap;rounded=0;" vertex="1" parent="1">
          <mxGeometry x="-1473" y="-1278" width="94" height="30" as="geometry" />
        </mxCell>
        <mxCell id="mCzkdZ3VEg0cLPXtIAzx-5" value="" style="rounded=0;whiteSpace=wrap;html=1;strokeColor=#EA6B66;gradientColor=none;fillColor=none;" vertex="1" parent="1">
          <mxGeometry x="-1369" y="-1141" width="30" height="78" as="geometry" />
        </mxCell>
        <mxCell id="mCzkdZ3VEg0cLPXtIAzx-6" value="" style="endArrow=classic;html=1;rounded=0;entryX=0.432;entryY=1.233;entryDx=0;entryDy=0;entryPerimeter=0;" edge="1" parent="1" target="mCzkdZ3VEg0cLPXtIAzx-7">
          <mxGeometry width="50" height="50" relative="1" as="geometry">
            <mxPoint x="-1368.5" y="-1140" as="sourcePoint" />
            <mxPoint x="-1368" y="-1180" as="targetPoint" />
          </mxGeometry>
        </mxCell>
        <mxCell id="mCzkdZ3VEg0cLPXtIAzx-7" value="Instant Vector（瞬时向量）" style="text;html=1;align=center;verticalAlign=middle;whiteSpace=wrap;rounded=0;" vertex="1" parent="1">
          <mxGeometry x="-1408" y="-1235" width="95" height="30" as="geometry" />
        </mxCell>
        <mxCell id="mCzkdZ3VEg0cLPXtIAzx-8" value="" style="endArrow=classic;html=1;rounded=0;" edge="1" parent="1">
          <mxGeometry width="50" height="50" relative="1" as="geometry">
            <mxPoint x="-1303.5" y="-1134" as="sourcePoint" />
            <mxPoint x="-1303" y="-1170" as="targetPoint" />
          </mxGeometry>
        </mxCell>
        <mxCell id="mCzkdZ3VEg0cLPXtIAzx-9" value="Scalar（标量）" style="text;html=1;align=center;verticalAlign=middle;whiteSpace=wrap;rounded=0;" vertex="1" parent="1">
          <mxGeometry x="-1331" y="-1199" width="60" height="30" as="geometry" />
        </mxCell>
        <mxCell id="mCzkdZ3VEg0cLPXtIAzx-11" value="时间轴" style="text;html=1;strokeColor=none;fillColor=none;align=center;verticalAlign=middle;whiteSpace=wrap;rounded=0;fontFamily=Aa老外雨果体;fontSize=15;fontStyle=1" vertex="1" parent="1">
          <mxGeometry x="-1034" y="-938" width="74" height="30" as="geometry" />
        </mxCell>
        <mxCell id="mCzkdZ3VEg0cLPXtIAzx-12" value="" style="endArrow=none;dashed=1;html=1;strokeWidth=2;rounded=0;startArrow=oval;startFill=1;" edge="1" parent="1">
          <mxGeometry width="50" height="50" relative="1" as="geometry">
            <mxPoint x="-1408" y="-920" as="sourcePoint" />
            <mxPoint x="-1408" y="-1168" as="targetPoint" />
          </mxGeometry>
        </mxCell>
        <mxCell id="mCzkdZ3VEg0cLPXtIAzx-13" value="" style="endArrow=none;dashed=1;html=1;strokeWidth=2;rounded=0;startArrow=oval;startFill=1;" edge="1" parent="1">
          <mxGeometry width="50" height="50" relative="1" as="geometry">
            <mxPoint x="-1356" y="-924" as="sourcePoint" />
            <mxPoint x="-1356" y="-1172" as="targetPoint" />
          </mxGeometry>
        </mxCell>
        <mxCell id="mCzkdZ3VEg0cLPXtIAzx-14" value="" style="endArrow=none;dashed=1;html=1;strokeWidth=2;rounded=0;startArrow=oval;startFill=1;" edge="1" parent="1">
          <mxGeometry width="50" height="50" relative="1" as="geometry">
            <mxPoint x="-1298" y="-922" as="sourcePoint" />
            <mxPoint x="-1298" y="-1170" as="targetPoint" />
          </mxGeometry>
        </mxCell>
        <mxCell id="mCzkdZ3VEg0cLPXtIAzx-15" value="" style="endArrow=none;dashed=1;html=1;strokeWidth=2;rounded=0;startArrow=oval;startFill=1;" edge="1" parent="1">
          <mxGeometry width="50" height="50" relative="1" as="geometry">
            <mxPoint x="-1246" y="-923" as="sourcePoint" />
            <mxPoint x="-1246" y="-1171" as="targetPoint" />
          </mxGeometry>
        </mxCell>
        <mxCell id="mCzkdZ3VEg0cLPXtIAzx-27" value="t2" style="text;strokeColor=none;fillColor=none;html=1;fontSize=12;fontStyle=1;verticalAlign=middle;align=center;" vertex="1" parent="1">
          <mxGeometry x="-1395" y="-933" width="100" height="40" as="geometry" />
        </mxCell>
        <mxCell id="mCzkdZ3VEg0cLPXtIAzx-28" value="t3" style="text;strokeColor=none;fillColor=none;html=1;fontSize=12;fontStyle=1;verticalAlign=middle;align=center;" vertex="1" parent="1">
          <mxGeometry x="-1337" y="-931" width="100" height="40" as="geometry" />
        </mxCell>
        <mxCell id="mCzkdZ3VEg0cLPXtIAzx-29" value="t1" style="text;strokeColor=none;fillColor=none;html=1;fontSize=12;fontStyle=1;verticalAlign=middle;align=center;" vertex="1" parent="1">
          <mxGeometry x="-1448" y="-932" width="100" height="40" as="geometry" />
        </mxCell>
        <mxCell id="mCzkdZ3VEg0cLPXtIAzx-30" value="t4" style="text;strokeColor=none;fillColor=none;html=1;fontSize=12;fontStyle=1;verticalAlign=middle;align=center;" vertex="1" parent="1">
          <mxGeometry x="-1285" y="-932" width="100" height="40" as="geometry" />
        </mxCell>
        <mxCell id="mCzkdZ3VEg0cLPXtIAzx-32" value="" style="endArrow=classic;html=1;rounded=0;" edge="1" parent="1">
          <mxGeometry width="50" height="50" relative="1" as="geometry">
            <mxPoint x="-1379" y="-850" as="sourcePoint" />
            <mxPoint x="-1379" y="-880" as="targetPoint" />
          </mxGeometry>
        </mxCell>
      </root>
    </mxGraphModel>
  </diagram>
</mxfile>
